<?xml version="1.0" encoding="UTF-8"?>
<svg width="373px" height="330px" viewBox="0 0 373 330" version="1.1" xmlns="http://www.w3.org/2000/svg" xmlns:xlink="http://www.w3.org/1999/xlink">
    <!-- Generator: Sketch 52.5 (67469) - http://www.bohemiancoding.com/sketch -->
    <title>图 2</title>
    <desc>Created with Sketch.</desc>
    <defs>
        <linearGradient x1="58.2577828%" y1="68.6503223%" x2="19.5680204%" y2="0%" id="linearGradient-1">
            <stop stop-color="#E5EEFD" offset="0%"></stop>
            <stop stop-color="#F3F6FD" offset="100%"></stop>
        </linearGradient>
        <linearGradient x1="43.0028796%" y1="50%" x2="13.7279573%" y2="100%" id="linearGradient-2">
            <stop stop-color="#E2EDFB" offset="0%"></stop>
            <stop stop-color="#F2F7FD" offset="100%"></stop>
        </linearGradient>
        <linearGradient x1="28.1565884%" y1="3.86668376%" x2="75.5290966%" y2="93.8871043%" id="linearGradient-3">
            <stop stop-color="#F9FAFF" offset="0%"></stop>
            <stop stop-color="#DEE9FC" offset="100%"></stop>
        </linearGradient>
        <linearGradient x1="50%" y1="0%" x2="50%" y2="99.4246199%" id="linearGradient-4">
            <stop stop-color="#F2F6FF" offset="0%"></stop>
            <stop stop-color="#DEE9FC" offset="100%"></stop>
        </linearGradient>
        <filter x="-9.5%" y="-33.5%" width="119.1%" height="167.0%" filterUnits="objectBoundingBox" id="filter-5">
            <feGaussianBlur stdDeviation="1.04999995" in="SourceGraphic"></feGaussianBlur>
        </filter>
        <filter x="-22.4%" y="-4.9%" width="144.8%" height="109.8%" filterUnits="objectBoundingBox" id="filter-6">
            <feGaussianBlur stdDeviation="0.839999962" in="SourceGraphic"></feGaussianBlur>
        </filter>
        <filter x="-17.6%" y="-4.8%" width="135.1%" height="109.6%" filterUnits="objectBoundingBox" id="filter-7">
            <feGaussianBlur stdDeviation="0.839999962" in="SourceGraphic"></feGaussianBlur>
        </filter>
        <linearGradient x1="50%" y1="0%" x2="50%" y2="100%" id="linearGradient-8">
            <stop stop-color="#EEF0FC" offset="0%"></stop>
            <stop stop-color="#FAFBFF" offset="100%"></stop>
        </linearGradient>
        <linearGradient x1="40.215833%" y1="26.4100358%" x2="92.3817837%" y2="100%" id="linearGradient-9">
            <stop stop-color="#E2E9FD" offset="0%"></stop>
            <stop stop-color="#F3F6FD" offset="100%"></stop>
        </linearGradient>
    </defs>
    <g id="页面-1" stroke="none" stroke-width="1" fill="none" fill-rule="evenodd">
        <g id="画板-copy备份" transform="translate(-774.000000, -184.000000)">
            <g id="图-2" transform="translate(774.000000, 184.000000)">
                <g id="图">
                    <g id="编组-4" transform="translate(206.814617, 196.559979)" fill="#7BC6BA">
                        <rect id="矩形" x="6.71999929" y="0.839999912" width="3.35999965" height="31.9199966" rx="1.67999982"></rect>
                        <rect id="矩形备份" transform="translate(11.123683, 18.420008) rotate(31.000000) translate(-11.123683, -18.420008) " x="9.86368297" y="13.3800089" width="2.51999974" height="10.0799989" rx="1.25999987"></rect>
                        <rect id="矩形备份-3" transform="translate(4.860902, 12.944042) scale(-1, 1) rotate(35.000000) translate(-4.860902, -12.944042) " x="3.60090173" y="6.64404316" width="2.51999974" height="12.5999987" rx="1.25999987"></rect>
                        <rect id="矩形备份-2" transform="translate(11.123683, 4.980010) rotate(31.000000) translate(-11.123683, -4.980010) " x="9.86368297" y="-0.0599897274" width="2.51999974" height="10.0799989" rx="1.25999987"></rect>
                    </g>
                    <g id="编组-4备份" transform="translate(221.094616, 176.399981)" fill="#7BC6BA">
                        <rect id="矩形" x="11.4239991" y="1.42799989" width="5.71199956" height="54.2639958" rx="2.85599978"></rect>
                        <rect id="矩形备份" transform="translate(18.780472, 31.530021) rotate(31.000000) translate(-18.780472, -31.530021) " x="16.6384721" y="22.7100219" width="4.28399967" height="17.6399981" rx="2.14199984"></rect>
                        <rect id="矩形备份-3" transform="translate(8.383984, 22.176895) scale(-1, 1) rotate(35.000000) translate(-8.383984, -22.176895) " x="6.24198397" y="11.2568957" width="4.28399967" height="21.8399977" rx="2.14199984"></rect>
                        <rect id="矩形备份-2" transform="translate(18.780472, 8.682023) rotate(31.000000) translate(-18.780472, -8.682023) " x="16.6384721" y="-0.137976342" width="4.28399967" height="17.6399981" rx="2.14199984"></rect>
                    </g>
                    <path d="M25.8054427,276.355944 C50.3407658,273.384566 73.0171612,280.367158 93.8346291,297.303719 C127.627505,330.225829 174.007088,337.733805 232.973377,319.827645 C304.313558,301.329642 342.192271,291.187109 346.609514,289.400048 C393.306124,273.117714 376.598801,253.651024 296.487544,230.999976 C276.185589,227.732899 245.454613,226.09936 204.294617,226.09936 C123.265352,210.06757 69.0258984,203.343451 41.5762564,205.927003 C7.54523366,214.443406 -5.59446897,226.298058 2.15714852,241.490959 C0.368165902,261.239182 6.49077156,272.860844 20.5249655,276.355944 L25.8054427,276.355944 Z" id="路径-14" fill="#FAFBFF"></path>
                    <polygon id="路径-10" fill="#E5EEFD" points="9.41463794 226.09936 115.217989 193.851714 275.69461 252.388437 178.25462 297.303719"></polygon>
                    <polyline id="路径-11" fill="#A9C5F4" points="9.41463794 226.09936 9.41463794 237.216425 178.25462 310.808752 178.25462 297.303719"></polyline>
                    <polygon id="路径-12" fill="#A9C5F4" points="178.25462 310.808752 275.69461 264.201046 275.69461 252.388437 178.25462 297.303719"></polygon>
                    <polygon id="路径-13" fill="#F3F6FD" points="41.5762564 228.236443 165.049204 279.637507 239.499032 245.577717 119.911501 203.344412"></polygon>
                    <ellipse id="椭圆形" fill="url(#linearGradient-1)" cx="169.679982" cy="258.719973" rx="32.7599966" ry="13.4399986"></ellipse>
                    <g id="编组-3" transform="translate(188.937626, 216.962615)">
                        <polygon id="路径-15" fill="#D2E1F8" points="6.9569926 0 0 12.13042 6.9569926 14.037361"></polygon>
                        <polygon id="路径-16" fill="#F1F6FC" points="6.9569926 14.037361 13.3271209 10.9150294 6.9569926 3.40162456e-14"></polygon>
                    </g>
                    <g id="编组-3备份" transform="translate(256.374612, 220.079977)">
                        <polygon id="路径-15" fill="#D2E1F8" points="10.0799989 0 0 17.4213118 10.0799989 20.1599979"></polygon>
                        <polygon id="路径-16" fill="#F1F6FC" points="10.0799989 20.1599979 19.319998 15.6758077 10.0799989 -2.14868101e-13"></polygon>
                    </g>
                    <g id="编组" transform="translate(37.974635, 0.000000)">
                        <g id="编组-2" transform="translate(-0.000000, -0.000000)">
                            <path d="M26.8262992,80.8849346 L87.8508507,19.8188421 L38.3652407,30.2033792 L13.3733133,49.0777564 C0.95878941,60.3221954 -2.81237886,68.0283743 2.05980846,72.1962932 C5.82510158,75.417318 14.8245757,80.8849346 24.359343,80.8849346 L26.8262992,80.8849346 Z" id="路径-9" fill="url(#linearGradient-2)"></path>
                            <path d="M51.6339567,224.490733 C70.476814,217.91039 72.6852313,211.889677 58.2592084,206.428594 C47.8838422,199.037922 53.5275203,191.250476 75.1902426,183.066254 C109.547786,176.566709 109.547786,168.918855 75.1902426,160.122692 C21.8962545,155.27089 3.79481593,141.445526 20.8859271,118.6466 C26.4935898,110.306764 30.5471231,104.2772 33.0465269,100.557908 C48.3648309,77.7631721 47.7784521,60.8437399 28.6032494,49.0777564 C21.901505,47.4304499 16.8248597,47.4304499 13.3733133,49.0777564 C53.6923496,18.0385139 76.8099131,1.69277194 82.7260038,0.0405303988 C127.492472,-1.22480631 133.028073,27.1371929 99.3328078,85.1265281 C89.181481,103.232758 86.0911774,114.406115 90.061897,118.6466 C94.2376937,123.106095 101.519467,125.233841 115.820422,128.133074 C138.280118,134.607201 146.460291,144.665025 140.360942,158.306546 C137.862982,163.893368 132.439213,170.641999 126.973802,176.482457 C118.770827,184.537381 106.466859,189.917529 90.061897,192.622902 C79.7033098,192.277452 78.2430402,195.668791 85.6810881,202.79692 C89.8689381,213.332181 80.7283115,220.563452 58.2592084,224.490733 C55.5649157,225.044399 53.787134,225.321232 52.9258631,225.321232 L51.6339567,224.490733 Z" id="路径-8" fill="url(#linearGradient-3)"></path>
                            <path d="M56.8721592,64.6744429 L112.940743,40.3199958 C81.0115292,99.8219259 75.1292255,129.572891 95.293832,129.572891 L55.7649018,149.158305 C26.3185377,149.158305 17.5543828,139.383059 29.4724368,119.832567 L56.8721592,64.6744429 Z" id="路径-2" fill="url(#linearGradient-4)"></path>
                        </g>
                    </g>
                    <g id="编组-5" transform="translate(131.214625, 105.839989)">
                        <path d="M22.9703269,159.430344 C24.447144,159.430344 25.3503526,158.820612 25.4598106,158.479577 C25.5692685,158.138542 25.6405354,157.587135 25.2042687,157.099919 C24.626011,156.454131 24.5677737,156.226853 23.0566701,156.068604 C22.0833543,155.966674 20.9925959,156.532415 20.6483562,157.163196 C20.3513277,157.707467 20.3513689,158.138542 20.4998625,158.479577 C20.6483562,158.820612 21.4935098,159.430344 22.9703269,159.430344 Z" id="椭圆形" fill="#9A500C"></path>
                        <path d="M54.6360067,159.518996 C56.1128238,159.518996 57.0160324,158.909263 57.1254904,158.568229 C57.2349483,158.227194 57.3062152,157.675786 56.8699485,157.188571 C56.2916908,156.542782 56.2334535,156.315505 54.7223499,156.157255 C53.7490341,156.055326 52.6582757,156.621067 52.314036,157.251848 C52.0170075,157.796119 52.0170487,158.227194 52.1655423,158.568229 C52.314036,158.909263 53.1591896,159.518996 54.6360067,159.518996 Z" id="椭圆形" fill="#9A500C" transform="translate(54.638255, 157.832149) scale(-1, 1) translate(-54.638255, -157.832149) "></path>
                        <path d="M25.4529384,67.9953032 C22.7379142,72.9041515 21.3804021,79.5408643 21.3804021,87.9054416 C21.3804021,133.088952 21.3804021,155.973669 21.3804021,156.559595 L24.7748294,156.559595 C33.5540662,116.57479 38.07891,95.2659162 38.349361,92.6329741 C39.1169807,89.1311798 39.9089909,89.1311798 40.7253914,92.6329741 C47.8123697,135.250722 51.9931327,156.559595 53.2676805,156.559595 L56.3477429,156.559595 C57.823071,120.499728 58.5607351,97.6150102 58.5607351,87.9054416 C58.5607351,76.3444488 56.1406183,70.0594827 54.987045,67.9953032 L52.5329029,67.0438827 L25.4529384,67.9953032 Z" id="路径-2" fill="#414149"></path>
                        <path d="M8.43494613,25.1651015 C7.84161075,23.7608168 6.98229581,22.870271 5.8570013,22.4934639 C2.92342707,21.5968339 1.09993281,21.5968339 0.386518513,22.4934639 C-0.389522485,24.0196664 0.00302148196,24.9976102 1.56415041,25.4272953 C4.03117295,25.6502421 5.61039769,25.9219653 6.30182464,26.2424648 L8.43494613,25.1651015 Z" id="路径-7" fill="#FED9C4"></path>
                        <path d="M79.1501187,25.5836709 C78.5567833,24.1793863 77.6974684,23.2888404 76.5721739,22.9120334 C73.6385997,22.0154033 71.8151054,22.0154033 71.1016911,22.9120334 C70.3256501,24.4382359 70.7181941,25.4161797 72.279323,25.8458648 C74.7463455,26.0688116 76.3255703,26.3405347 77.0169972,26.6610342 L79.1501187,25.5836709 Z" id="路径-7备份" fill="#FED9C4" transform="translate(74.932646, 24.450298) scale(-1, 1) translate(-74.932646, -24.450298) "></path>
                        <path d="M38.3597985,20.9595321 C38.2961945,23.6635649 37.5215678,25.0155814 36.0359185,25.0155814 C34.5050445,27.21303 33.7396075,28.3117544 33.7396075,28.3117544 C33.7396075,28.3117544 40.1344605,33.0964456 40.4214378,33.0964456 C40.7084151,33.0964456 49.3929807,30.3789608 49.3929807,29.9571149 C49.3929807,29.6758843 48.4423572,28.0287065 46.5411104,25.0155814 C44.5351797,24.4022806 43.6161406,23.2249408 43.783993,21.483562 L43.783993,20.5779134 L38.3597985,20.5779134 L38.3597985,20.9595321 Z" id="路径-4" fill="#F6C3A5"></path>
                        <path d="M24.0906094,68.9944269 C23.2401367,72.7522867 24.8347079,74.8642854 28.874323,75.330423 C40.5928253,76.4088884 49.9439674,76.1210155 56.9277492,74.4668043 C56.3274762,72.051473 56.0273397,70.2273472 56.0273397,68.9944269 C34.7361862,65.7518662 24.0906094,65.7518662 24.0906094,68.9944269 Z" id="路径-3备份" fill="#2A2A32" opacity="0.6" filter="url(#filter-5)"></path>
                        <path d="M36.3257935,24.9146541 C28.771013,24.5428049 24.5207235,26.107154 23.5749251,29.6077015 C20.9111506,38.0824521 18.4226938,41.1572332 16.1095549,38.8320447 C12.6787469,35.9500927 10.1162055,31.3109625 8.4219308,24.9146541 C6.94134599,24.5585994 6.08636949,24.923477 5.8570013,26.0092866 C6.59756704,32.892348 9.57815631,39.7518206 14.7987691,46.5877044 C18.4853612,49.2428725 21.8836457,48.0770991 24.9936228,43.0903843 C26.0308013,42.2924839 26.3673111,42.670064 26.0031522,44.2231247 C23.6843342,57.0766071 22.5249251,65.1246287 22.5249251,68.3671894 C22.5249251,71.404528 24.5447327,73.1562661 28.5843478,73.6224038 C40.1772554,74.7213904 49.4656001,74.4437781 56.4493819,72.7895668 C59.1652651,71.0063517 58.7732093,63.2138902 55.2732144,49.4121821 C54.8596957,46.7016612 54.6529363,44.9719754 54.6529363,44.2231247 C54.6529363,42.670064 55.2517515,42.670064 56.4493819,44.2231247 C60.5743611,50.8606187 64.6885144,50.0840884 68.791842,41.8935336 C72.1623567,34.5383219 73.5216768,29.4856389 72.8698023,26.7354846 C72.7356978,26.0361665 72.5325304,25.6430712 72.2603001,25.5561989 C71.013727,25.1584007 70.3530818,25.2825766 69.8286258,26.7354846 C67.0903867,37.4716938 64.4266915,41.2943578 61.8375402,38.2034764 C59.7157381,33.2023404 58.3521141,30.0407245 57.7466683,28.7186285 C56.6451089,26.1826456 55.0700886,24.9146541 53.0216075,24.9146541 L46.3588954,24.9146541 C46.1666021,26.2689111 45.5029264,27.2619521 44.3678682,27.8937773 C43.8534198,28.0687932 43.4884207,28.1694529 43.272871,28.1957565 C41.5115411,28.4106917 40.2637978,28.2471755 39.3669903,28.0286106 C37.9143731,27.3289477 37.0360862,26.7546034 36.7321297,26.3055778 C36.4281731,25.8565522 36.2927278,25.3929109 36.3257935,24.9146541 Z" id="路径-3" fill="#62B3E9"></path>
                        <path d="M33.0760398,12.0230083 C33.8854906,16.0660116 35.4746409,19.2014512 37.8434908,21.4293273 C39.6170596,22.7484412 41.6874908,22.7484412 44.0547842,21.4293273 C46.1253977,19.4310556 47.2824365,15.1883204 47.5259006,8.70112169 L44.9563258,3.21291262 L37.8434908,3.61482452 L34.290216,6.85364544 C33.4807652,8.63573024 33.0760398,9.83272614 33.0760398,10.4446331 C33.0760398,11.0565401 33.0760398,11.5826652 33.0760398,12.0230083 Z" id="路径-5" fill="#FED9C4"></path>
                        <path d="M33.0338372,13.3853424 C35.6550643,10.7860248 37.3358031,9.48636596 38.0760537,9.48636596 C40.3725906,9.49151407 41.8345346,9.15748541 42.461886,8.48427997 C43.800874,7.06136577 44.860547,7.39539443 45.640905,9.48636596 C46.8406545,12.0804158 47.6873393,12.801331 48.1809595,11.6491117 C50.6331369,9.21896344 50.2930023,6.28896939 47.1605558,2.85912957 C44.8789001,0.420720348 42.3062597,-0.457990532 39.4426346,0.222996931 C35.3334059,1.35198986 32.8820876,3.0111186 32.0886798,5.20038315 C31.3902127,8.62399734 31.3059273,10.9101781 31.8358237,12.0589254 C32.0832922,12.9432034 32.3448283,13.3853424 32.6204319,13.3853424 C32.8960354,13.3853424 33.0338372,13.3853424 33.0338372,13.3853424 Z" id="路径-6" fill="#925A2F"></path>
                        <path d="M38.465357,90.7309296 L30.8253383,128.612078 C27.5054222,136.430677 26.4748744,135.13998 27.7336948,124.739988 C29.6219254,109.139999 31.6378869,92.2437432 34.6532154,86.4003061 C36.6153912,79.8570234 37.8861051,80.9230242 38.465357,89.5983085 L38.465357,90.7309296 Z" id="路径-17" fill="#363642" opacity="0.8" filter="url(#filter-6)"></path>
                        <path d="M46.1901121,91.5599904 L39.5343307,129.271838 C36.5440024,137.372355 35.6782485,136.222618 36.9370689,125.822625 C38.8252995,110.222636 41.0692558,85.8218509 44.7371511,85.715567 C51.0922195,80.0550571 52.3946223,80.7850153 48.6443594,87.9054416 L46.1901121,91.5599904 Z" id="路径-17备份" fill="#363642" opacity="0.8" filter="url(#filter-7)" transform="translate(43.554858, 108.273609) scale(-1, 1) translate(-43.554858, -108.273609) "></path>
                    </g>
                    <g id="编组-6" transform="translate(29.574636, 66.359993)" fill="url(#linearGradient-8)">
                        <ellipse id="椭圆形" cx="183.959981" cy="37.3799961" rx="5.87999938" ry="5.45999943"></ellipse>
                        <ellipse id="椭圆形备份" cx="191.93998" cy="34.8599963" rx="9.65999899" ry="8.81999907"></ellipse>
                        <ellipse id="椭圆形备份-2" cx="201.599979" cy="36.9599961" rx="7.55999921" ry="6.71999929"></ellipse>
                        <ellipse id="椭圆形备份-3" cx="6.96536034" cy="48.2999949" rx="6.29999934" ry="5.45999943"></ellipse>
                        <ellipse id="椭圆形备份-4" cx="132.545347" cy="4.19999956" rx="5.03999947" ry="4.19999956"></ellipse>
                        <ellipse id="椭圆形备份-5" cx="211.505339" cy="55.8599941" rx="2.51999974" ry="2.09999978"></ellipse>
                    </g>
                    <ellipse id="椭圆形" fill="url(#linearGradient-9)" cx="117.774627" cy="233.519975" rx="8.39999912" ry="2.51999974"></ellipse>
                    <g id="编组-8" transform="translate(183.959981, 105.839989)" fill="#62B3E9">
                        <circle id="椭圆形" cx="2.09999978" cy="2.09999978" r="2.09999978"></circle>
                        <circle id="椭圆形备份-6" cx="9.65999899" cy="2.09999978" r="2.09999978"></circle>
                        <circle id="椭圆形备份-7" cx="18.0599981" cy="2.09999978" r="2.09999978"></circle>
                    </g>
                </g>
            </g>
        </g>
    </g>
</svg>